<?xml version="1.0" encoding="iso-8859-1"?>
<!-- Uploaded to: SVG Repo, www.svgrepo.com, Generator: SVG Repo Mixer Tools -->
<svg height="50px" width="50px" version="1.1" id="Layer_1" xmlns="http://www.w3.org/2000/svg" xmlns:xlink="http://www.w3.org/1999/xlink" 
	 viewBox="0 0 512.001 512.001" xml:space="preserve">
<path style="fill:#AB91EA;" d="M512.001,256.006c0,141.395-114.606,255.998-255.996,255.994
	C114.606,512.004,0.001,397.402,0.001,256.006C-0.007,114.61,114.606,0,256.005,0C397.395,0,512.001,114.614,512.001,256.006z"/>
<path style="fill:#947ADB;" d="M498.97,336.633L255.64,93.301l-0.002-0.001l-1.667-1.667c-0.634-0.636-1.393-1.142-2.235-1.494
	c-0.837-0.35-1.743-0.539-2.669-0.539H96.534c-3.829,0-6.933,3.104-6.933,6.933v291.2c0,2.347,1.243,4.32,3.027,5.574
	c0.463,0.658,112.783,112.978,113.441,113.441c0.117,0.167,0.297,0.272,0.426,0.426c16.022,3.14,32.567,4.828,49.511,4.827
	C369.214,512.003,465.185,438.501,498.97,336.633z"/>
<g>
	<path style="fill:#F4F6F9;" d="M103.467,103.467h138.667v62.4c0,3.829,3.104,6.933,6.933,6.933h62.4v41.6h13.867v-48.533
		c0-0.926-0.189-1.831-0.539-2.67c-0.352-0.842-0.859-1.6-1.494-2.235l-69.329-69.329c-0.635-0.635-1.393-1.142-2.235-1.494
		c-0.838-0.35-1.744-0.539-2.67-0.539H96.534c-3.829,0-6.933,3.104-6.933,6.933v291.2c0,3.829,3.104,6.933,6.933,6.933h117.867
		V380.8H103.467V103.467z M256.001,113.27l45.663,45.663h-45.663V113.27z"/>
	<path style="fill:#F4F6F9;" d="M420.37,327.364l-27.731-27.731l-0.004-0.004l-55.465-55.465c-2.708-2.708-7.095-2.708-9.804,0
		l-55.465,55.465l-0.004,0.004l-27.731,27.731c-2.708,2.708-2.708,7.095,0,9.804c2.708,2.708,7.095,2.708,9.804,0l15.898-15.898
		v94.196c0,3.829,3.104,6.933,6.933,6.933h27.733h55.467h27.733c3.829,0,6.933-3.104,6.933-6.933V321.27l15.898,15.898
		c1.355,1.355,3.129,2.031,4.902,2.031s3.548-0.677,4.902-2.031C423.078,334.461,423.078,330.073,420.37,327.364z M311.467,408.533
		v-41.6h41.6v41.6H311.467z M380.801,408.533h-13.867V360c0-3.829-3.104-6.933-6.933-6.933h-55.467
		c-3.829,0-6.933,3.104-6.933,6.933v48.533h-13.867v-101.13l48.533-48.533l48.533,48.533V408.533z"/>
</g>
</svg>